PathFileType	4	(X/Y/Z)	C:\Users\WrightLab\Desktop\Jo\P1_boxCal31.trc
DataRate	CameraRate	NumFrames	NumMarkers	Units	OrigDataRate	OrigDataStartFrame	OrigNumFrames
100.00	100.00	       15	19	mm	100.00	463	       740
Frame#	Time	Headset_Front			Headset_Back			Headset_Left			Headset_Right			Left_Shoulder			Right_Shoulder			Sternum			C7			Left Elbow			Right Elbow			Left Wrist			Right Wrist			Left ASIS			Right ASIS			S2			Left Knee			Right Knee			Left Ankle			Right Ankle			
		X1	Y1	Z1	X2	Y2	Z2	X3	Y3	Z3	X4	Y4	Z4	X5	Y5	Z5	X6	Y6	Z6	X7	Y7	Z7	X8	Y8	Z8	X9	Y9	Z9	X10	Y10	Z10	X11	Y11	Z11	X12	Y12	Z12	X13	Y13	Z13	X14	Y14	Z14	X15	Y15	Z15	X16	Y16	Z16	X17	Y17	Z17	X18	Y18	Z18	X19	Y19	Z19	

463	4.620	17.31375	1425.69702	1125.84644	-29.77294	1530.38318	844.04730	98.32495	1483.49841	944.19971	-104.33486	1451.50330	1040.49988	149.45529	1300.54797	801.89563	-176.48219	1290.04919	1000.55084	42.16616	1197.60339	1024.34094	-63.30400	1297.77429	799.52618	162.11800	985.60199	697.64600	-276.00638	1019.85992	1008.77765	262.88452	798.14539	701.67358	-212.83800	806.53815	1152.40320	139.75493	916.70068	991.09485	-41.39502	911.79840	1076.35095	-90.89601	913.01636	744.59436	265.26288	533.48444	930.38678	-105.80127	459.69507	967.18384	226.06802	185.27724	798.44019	4.51633	94.22665	874.48163	
464	4.630	19.22814	1425.79944	1135.76611	-25.07635	1530.42371	853.50909	101.95225	1483.46545	954.72528	-101.43445	1452.12976	1049.38977	153.10649	1300.46350	812.77588	-174.02527	1289.71948	1008.86609	43.44957	1197.57251	1034.86060	-58.15818	1297.76050	808.97266	166.97841	986.45300	707.54016	-272.73993	1019.52106	1018.83276	267.66742	798.29474	711.44751	-202.81201	808.14594	1164.75476	142.45506	916.86609	1003.30823	-41.21692	912.24207	1084.40735	-83.85308	913.26031	752.59424	267.85419	533.80933	947.89850	-103.28164	458.61157	970.85425	243.72836	178.96234	827.90521	4.57568	94.37550	874.77686	
465	4.640	21.36168	1425.45898	1145.74182	-20.55741	1530.28394	863.08307	105.71648	1483.04968	964.22107	-98.47234	1452.12524	1059.00208	158.50552	1300.04346	825.18726	-171.57477	1289.37463	1016.77692	46.22107	1197.33704	1045.34094	-53.45091	1297.84839	818.20392	172.14522	987.22198	717.80579	-269.12292	1018.80164	1028.91345	272.30469	798.77368	720.53149	-194.27597	809.91571	1176.85083	144.73442	917.43909	1015.86182	-41.03615	912.18768	1093.46729	-76.49529	913.72681	760.84314	269.67807	534.59009	965.41638	-101.14272	457.85721	974.29230	260.89145	173.78307	858.24792	5.33288	93.72892	873.23737	
466	4.650	22.88853	1425.37573	1155.85596				109.71679	1482.77258	974.60474	-95.60597	1452.24231	1067.12256	162.98236	1299.93787	837.14319	-169.11069	1288.87415	1024.72620	48.87790	1196.29077	1054.69470	-49.41010	1297.33875	827.44482	176.86865	987.54443	727.51221	-265.64911	1017.72253	1039.05115	276.81204	798.78949	729.86401	-186.93044	811.89850	1189.24927	147.19687	917.83923	1028.75842	-39.90786	911.80499	1102.91028	-68.20493	913.90308	768.90228	270.75653	534.14246	982.00977	-98.41468	456.67786	977.70990	277.32581	167.98146	889.23315	6.39280	92.51414	871.78656	
467	4.660	25.09130	1424.86157	1165.99500				113.08090	1482.32288	985.33807	-93.02902	1451.89014	1076.45203	167.66534	1299.86670	849.20917	-166.21886	1287.90662	1032.43408	51.10972	1196.06226	1066.83472	-44.34718	1296.83752	837.44983	181.73729	987.14429	738.64246	-262.33600	1016.59570	1049.09180	282.19409	798.88013	741.53284	-179.08301	813.36835	1200.95459	149.26131	917.42682	1039.42371	-38.77710	911.51233	1112.26001	-60.13704	913.55634	776.92566	272.06705	532.88928	998.43384	-96.66410	455.85718	981.32190	293.68900	163.69032	920.33472	7.07873	91.56503	870.91187	
468	4.670	26.55577	1424.47070	1176.34717				116.48488	1481.32800	995.38037	-90.63974	1451.33093	1085.79175	171.82042	1298.84985	860.48016	-163.73605	1286.71594	1040.59924	52.47797	1194.31714	1076.20825	-40.61025	1296.64453	846.58514	187.24007	987.26135	749.31738	-258.65369	1015.41772	1058.73560	287.16562	798.77802	750.85797	-172.04588	814.71924	1212.80322	152.17451	917.60010	1052.17969	-39.98925	908.63965	1116.77234	-52.36308	913.63776	785.19318	271.60101	530.78760	1014.40900	-94.25186	455.35025	984.69659	307.89026	160.16270	953.05255	7.12765	91.69530	871.15314	
469	4.680	28.86511	1423.59778	1186.30347				120.25417	1480.30896	1005.59155	-87.81322	1450.44812	1094.86902	176.74170	1298.01477	873.30884	-161.62592	1285.47815	1049.04346	54.21552	1193.22681	1086.30688	-35.78584	1296.20190	855.76886	192.92418	987.72253	758.81866	-255.24887	1014.05029	1069.20984	293.07816	798.80457	761.97650	-165.45610	815.78577	1224.38123	153.93886	916.83746	1063.39111	-39.14352	906.94385	1126.53406	-44.34841	912.93585	793.65375	271.09052	528.75653	1028.92090	-91.70085	454.06290	987.77118	320.22266	157.40311	985.56763	7.25026	92.05841	871.74298	
470	4.690	30.92257	1422.54651	1196.51282	0.84998	1527.14453	912.23352	121.63747	1477.43970	1017.24146	-85.09127	1449.74731	1104.47290	181.27324	1297.29431	885.43250	-158.63458	1284.19702	1056.83191	55.92128	1191.65845	1097.21533	-30.00798	1294.43933	865.87842	198.52908	987.79449	770.55316	-251.42833	1012.37311	1078.84460	298.14325	798.39557	773.63422	-159.04985	817.11121	1236.01721	156.15276	915.58728	1074.85022	-38.63417	904.83130	1134.83435	-35.76021	912.13354	802.58112	269.63919	526.43933	1042.77307	-89.24165	452.74353	991.36578	331.23944	155.14351	1019.02484	7.35932	92.37346	872.27087	
471	4.700	32.35808	1421.60291	1207.08801	4.88113	1525.30994	922.40863	125.29462	1476.20752	1029.56653	-82.74026	1448.50403	1113.94080	185.85355	1295.70044	897.72345	-156.43114	1282.51270	1065.61206	57.33227	1189.45837	1107.98816	-25.49203	1293.78052	875.67487	204.16994	987.09344	782.07318	-247.75546	1010.79425	1088.35938	303.57062	798.11188	784.34930	-152.54178	817.61060	1247.18213	157.62024	913.94843	1086.23535	-38.07701	903.09320	1143.63538	-28.44771	911.43689	810.83899	269.44650	523.15717	1056.37305	-86.58013	451.64417	995.65466	340.73154	155.93571	1053.43677	7.50034	92.78326	872.95251	
472	4.710	34.32151	1420.05151	1217.24609	10.61930	1523.88379	932.31427	128.40054	1475.02722	1039.76538	-79.92007	1447.30298	1123.12927	190.08362	1294.48425	910.55676	-153.82065	1281.14673	1073.85486	59.72853	1188.04346	1119.51941	-21.12587	1293.37292	885.39307	210.79343	986.20160	793.70203	-243.99791	1008.43335	1097.82837	309.09048	797.31445	795.86206	-146.74632	817.40295	1258.53870	158.55794	912.10748	1097.15967	-36.51635	900.82800	1152.99109	-20.93491	910.31866	820.34216	268.29199	520.32501	1069.51965	-83.95855	450.52435	999.06891	348.08527	156.22157	1088.20203	7.60439	93.07139	873.46124	
473	4.720	36.10993	1418.44348	1227.87402	12.89479	1522.79126	942.91699	131.73265	1473.45618	1051.78455	-77.37498	1445.84265	1132.71106	194.76440	1293.20337	923.21765	-150.98012	1279.26721	1082.06885	62.49648	1186.50806	1130.12756	-14.86757	1291.18542	895.65515	216.38786	984.96600	805.89813	-240.06842	1006.37274	1107.57654	315.49246	797.02106	808.01416	-140.97246	816.79639	1268.95386	160.73059	909.62152	1108.91077	-35.08866	899.01019	1162.66028	-14.40333	909.74182	828.72717	269.65945	517.73456	1082.64209	-81.20703	449.27145	1003.81860	353.86987	158.13626	1121.71692	7.90880	94.02891	874.90289	
474	4.730	37.80917	1417.15222	1238.17871	18.41556	1520.85022	952.96576	134.97105	1471.93616	1062.69336	-74.76957	1443.92688	1142.35059	199.46762	1291.70947	935.82867	-148.26395	1277.54565	1090.51929	64.38456	1184.30261	1139.79797	-10.85484	1289.96997	905.53589	222.33672	984.67120	818.54816	-236.43112	1004.45911	1117.03760	321.55728	795.44647	821.12524	-135.86113	816.46033	1280.00061	162.51790	907.32013	1119.27917	-33.27191	896.10236	1170.50085	-7.00386	907.46045	838.02698	269.74051	514.62408	1094.67810	-77.02962	446.95938	1008.17145	356.85544	160.09064	1154.78552	8.36485	95.43332	877.07513	
475	4.740	39.87599	1414.97046	1248.52832	22.44410	1519.03174	963.37195	138.11865	1470.02881	1073.47253	-72.19536	1442.42236	1152.06604	204.73375	1290.16345	948.66241	-145.70920	1276.04907	1099.17334	65.96381	1182.57068	1152.30640	-6.40292	1288.09668	915.84192	228.81076	982.83246	829.95343	-231.97632	1002.66449	1126.64209	327.34225	794.27808	832.86749	-131.23679	815.51520	1290.35754	164.51158	905.18237	1131.47229	-31.88098	894.37982	1181.68274	0.93701	905.84039	847.61462	271.54562	513.48315	1106.94788	-75.07908	445.50064	1013.22913	357.48477	162.77019	1186.07556	8.56511	96.06280	878.02386	
476	4.750	41.80530	1412.98108	1258.98022	26.33396	1517.81738	973.91675	141.55775	1468.02576	1084.96069	-69.71421	1440.72925	1161.54895	208.54965	1288.70374	960.19556	-142.86674	1274.02588	1107.67517	67.74502	1180.73730	1162.37048	-1.61420	1286.69250	925.58850	234.75624	981.83789	842.74371	-228.19258	1000.26886	1136.08350	333.04617	793.16687	845.91138	-127.00656	814.06158	1300.50330	166.15932	902.56445	1143.68958	-30.30173	892.59827	1190.38562	7.05709	904.23102	856.78973	273.97543	510.50232	1119.67944	-70.12392	442.94174	1018.86810	355.39618	165.54285	1215.90747	8.87231	97.10593	879.44800	
477	4.760	43.15901	1411.35706	1269.72852	30.17455	1516.37488	984.43018	144.70074	1466.41125	1095.84583	-66.79104	1438.80920	1170.85754	212.89940	1287.13538	974.30884	-139.93919	1272.36194	1116.39905	70.32702	1178.83228	1175.01550	4.05072	1283.84839	936.03381	240.40283	980.42883	855.47937	-224.15179	998.25647	1145.89368	339.79486	791.93774	859.33691	-123.31518	812.78497	1310.53540	168.05937	900.48895	1155.37463	-28.37831	888.09943	1198.96826	14.06424	902.82025	866.85388	277.32297	508.85614	1132.22449	-67.02328	441.32904	1024.80627	351.73080	168.69955	1243.44519	9.08824	97.80772	880.46179	
